<?xml version="1.0" encoding="UTF-8"?>
<svg id="Layer_1" data-name="Layer 1" xmlns="http://www.w3.org/2000/svg" viewBox="0 0 2858.19 3005.25">
  <defs>
    <style>
      .cls-1 {
        fill: none;
        stroke: #7fbfe9;
        stroke-linecap: round;
        stroke-miterlimit: 10;
        stroke-width: 69px;
      }
    </style>
  </defs>
  <path class="cls-1" d="M2629.98,2356.8c61.14-29.31,129.52-52.11,204.82-62.44,5.4-.74,10.83-1.42,16.3-2.03"/>
  <path class="cls-1" d="M2834.77,1885.16c-50.19-28.88-104.61-53.42-162.23-70.9-85.46-25.94-168.14-33.39-244.05-30.08"/>
  <path class="cls-1" d="M2678.25,2560.27c-6.03-28.08-12.51-56.83-19.47-86.21-7.96-33.58-17.73-74.33-28.79-117.26"/>
  <path class="cls-1" d="M2428.5,1784.18c-63.57-144.37-157.68-336.67-320.56-559.24-156.4-213.72-436.84-487.55-530.88-559.4-264.24-201.9-846.58-465.81-1141.59-305.13-133.32,72.61-187.59,223.16-234.43,554.05-33.41,236.03-36.95,518.73,90.73,831.75,78.12,191.51,137.87,274.86,210.98,392.55,31.4,50.55,186.91,288.43,221.21,342.85"/>
  <path class="cls-1" d="M2245.18,2527.12c-62.68-247.35-165.26-514.24-330.35-776.97-128.29-204.17-299.33-468.9-631.33-631.33-123.12-60.24-500.73-244.98-744.46-65.69-206.69,152.05-194.36,475.6-189.76,543.75,5.39,80.01,20.21,177.93,167.87,463.46,131.9,255.06,175.86,367.89,254.04,512.49"/>
  <path class="cls-1" d="M570.11,2030.35c68.95,12.74,78.23-336.06,332.67-465.26,294.19-149.39,653.08,128.38,689.12,64.89,36.45-64.22-280.7-436.7-647.47-399.67-38.09,3.85-190.66,21.5-308.55,143.95-221.71,230.27-139.15,642.54-65.77,656.1Z"/>
  <path class="cls-1" d="M2834.96,2811.45c-37.62-32.35-79.69-64.73-126.45-95.7-44.48-29.46-93.22-57.63-146.43-83.28-259.4-125.04-292.51-109.12-316.9-105.35"/>
  <path class="cls-1" d="M2834.53,2687.45c-48.23-45.6-105.23-92.5-171.73-136.54-44.48-29.46-93.22-57.63-146.43-83.28-259.4-125.04-301.96-109.16-317.83-103.95"/>
  <path class="cls-1" d="M771.04,2572.86c-61.22,29.06-107.63,136.55-178.06,248.38-2.92,4.63-5.79,9.26-8.62,13.89"/>
  <path class="cls-1" d="M724.12,2481.91c-71.17,42.03-107.47,136.03-177.91,247.86-22.19,35.23-43.69,73.33-61.08,108"/>
</svg>